<svg xmlns="http://www.w3.org/2000/svg" width="43" height="32" viewBox="0 0 43 32" fill="none">
  <path d="M43 16C43 24.8366 35.8366 32 27 32L16 32C7.16344 32 -3.18845e-06 24.8366 -2.41593e-06 16C-1.64342e-06 7.16344 7.16344 6.81766e-07 16 1.45428e-06L27 2.41593e-06C35.8366 3.18845e-06 43 7.16345 43 16Z" fill="white"/>
  <path d="M31.8839 16.8839C32.372 16.3957 32.372 15.6043 31.8839 15.1161L23.9289 7.16117C23.4408 6.67301 22.6493 6.67301 22.1612 7.16117C21.673 7.64932 21.673 8.44078 22.1612 8.92893L29.2322 16L22.1612 23.0711C21.673 23.5592 21.673 24.3507 22.1612 24.8388C22.6493 25.327 23.4408 25.327 23.9289 24.8388L31.8839 16.8839ZM14 17.25L31 17.25L31 14.75L14 14.75L14 17.25Z" fill="#284734"/>
</svg>