<svg width="43" height="32" viewBox="0 0 43 32" fill="none" xmlns="http://www.w3.org/2000/svg">
<path d="M43 16C43 24.8366 35.8366 32 27 32L16 32C7.16344 32 -3.18845e-06 24.8366 -2.41593e-06 16C-1.64342e-06 7.16344 7.16344 6.81766e-07 16 1.45428e-06L27 2.41593e-06C35.8366 3.18845e-06 43 7.16345 43 16Z" fill="white"/>
<path d="M31.7071 16.7071C32.0976 16.3166 32.0976 15.6834 31.7071 15.2929L25.3431 8.92893C24.9526 8.53841 24.3195 8.53841 23.9289 8.92893C23.5384 9.31946 23.5384 9.95262 23.9289 10.3431L29.5858 16L23.9289 21.6569C23.5384 22.0474 23.5384 22.6805 23.9289 23.0711C24.3195 23.4616 24.9526 23.4616 25.3431 23.0711L31.7071 16.7071ZM14 17L31 17L31 15L14 15L14 17Z" fill="#808080"/>
</svg>
